<?xml version="1.0" encoding="UTF-8" standalone="no"?>
<!-- Created with Inkscape (http://www.inkscape.org/) -->

<svg
   width="88.588905mm"
   height="88.953743mm"
   viewBox="0 0 88.588905 88.953743"
   version="1.1"
   id="svg1"
   inkscape:export-filename="ビットマップ.svg"
   inkscape:export-xdpi="96"
   inkscape:export-ydpi="96"
   xmlns:inkscape="http://www.inkscape.org/namespaces/inkscape"
   xmlns:sodipodi="http://sodipodi.sourceforge.net/DTD/sodipodi-0.dtd"
   xmlns="http://www.w3.org/2000/svg"
   xmlns:svg="http://www.w3.org/2000/svg">
  <sodipodi:namedview
     id="namedview1"
     pagecolor="#ffffff"
     bordercolor="#000000"
     borderopacity="0.25"
     inkscape:showpageshadow="2"
     inkscape:pageopacity="0.0"
     inkscape:pagecheckerboard="0"
     inkscape:deskcolor="#d1d1d1"
     inkscape:document-units="mm"
     showgrid="true"
     inkscape:zoom="1.4485269"
     inkscape:cx="218.49784"
     inkscape:cy="261.29994"
     inkscape:window-width="1920"
     inkscape:window-height="1009"
     inkscape:window-x="-8"
     inkscape:window-y="-8"
     inkscape:window-maximized="1"
     inkscape:current-layer="layer1">
    <inkscape:grid
       id="grid3"
       units="mm"
       originx="-37.627159"
       originy="-42.741576"
       spacingx="0.99999998"
       spacingy="1"
       empcolor="#0099e5"
       empopacity="0.30196078"
       color="#0099e5"
       opacity="0.14901961"
       empspacing="5"
       dotted="false"
       gridanglex="30"
       gridanglez="30"
       visible="true" />
  </sodipodi:namedview>
  <defs
     id="defs1" />
  <g
     inkscape:label="Layer 1"
     inkscape:groupmode="layer"
     id="layer1"
     style="display:inline"
     transform="translate(-37.62716,-42.741576)">
    <path
       id="path22"
       style="fill:#000000;stroke-width:0.264583"
       d="m 76.350378,42.741577 a 38.723244,38.723244 0 0 0 -38.723217,38.723218 38.723244,38.723244 0 0 0 38.723217,38.723215 38.723244,38.723244 0 0 0 23.832142,-8.31577 l 19.82307,19.82308 6.21048,-6.20996 -19.77089,-19.77088 A 38.723244,38.723244 0 0 0 115.0736,81.464795 38.723244,38.723244 0 0 0 76.350378,42.741577 Z M 76.016032,48.43632 A 33.748524,33.02999 0 0 1 110.09716,81.137683 33.748524,33.02999 0 0 1 76.684725,114.49327 33.748524,33.02999 0 0 1 42.603601,81.791907 33.748524,33.02999 0 0 1 76.016032,48.43632 Z" />
  </g>
</svg>
